<svg width="15" height="18" viewBox="0 0 15 18" fill="none" xmlns="http://www.w3.org/2000/svg">
<path d="M10.2056 5.80277C9.57747 5.80025 8.95505 5.94238 8.37398 6.22104C7.79292 6.49969 7.26461 6.9094 6.8193 7.42671C6.37398 7.94402 6.02039 8.55878 5.77876 9.23582C5.53713 9.91286 5.41221 10.6389 5.41113 11.3724V16.9994C5.41113 17.2278 5.48885 17.4469 5.62718 17.6084C5.7655 17.7699 5.95312 17.8607 6.14875 17.8607H7.86985C8.06547 17.8607 8.25309 17.7699 8.39142 17.6084C8.52975 17.4469 8.60746 17.2278 8.60746 16.9994V11.3724C8.6073 11.1115 8.65422 10.8535 8.74517 10.6152C8.83613 10.377 8.96906 10.1637 9.13532 9.98948C9.30157 9.81521 9.49741 9.68382 9.71007 9.60386C9.92273 9.52389 10.1474 9.49716 10.3695 9.5254C10.7679 9.58398 11.1339 9.81121 11.3983 10.164C11.6626 10.5168 11.8069 10.9706 11.8038 11.4393V16.9994C11.8038 17.2278 11.8815 17.4469 12.0198 17.6084C12.1582 17.7699 12.3458 17.8607 12.5414 17.8607H14.2625C14.4581 17.8607 14.6457 17.7699 14.7841 17.6084C14.9224 17.4469 15.0001 17.2278 15.0001 16.9994V11.3724C14.999 10.6389 14.8741 9.91286 14.6325 9.23582C14.3909 8.55878 14.0373 7.94402 13.592 7.42671C13.1466 6.9094 12.6183 6.49969 12.0373 6.22104C11.4562 5.94238 10.8338 5.80025 10.2056 5.80277Z" fill="white"/>
<path d="M3.1985 6.66357H0.985661C0.578288 6.66357 0.248047 7.04918 0.248047 7.52485V16.9989C0.248047 17.4746 0.578288 17.8602 0.985661 17.8602H3.1985C3.60588 17.8602 3.93612 17.4746 3.93612 16.9989V7.52485C3.93612 7.04918 3.60588 6.66357 3.1985 6.66357Z" fill="white"/>
<path d="M2.09208 4.94115C3.11051 4.94115 3.93612 3.97713 3.93612 2.78796C3.93612 1.59878 3.11051 0.634766 2.09208 0.634766C1.07365 0.634766 0.248047 1.59878 0.248047 2.78796C0.248047 3.97713 1.07365 4.94115 2.09208 4.94115Z" fill="white"/>
</svg>
