<svg width="20" height="21" viewBox="0 0 20 21" fill="none" xmlns="http://www.w3.org/2000/svg">
<path d="M14.851 4.27297C14.6212 4.27297 14.3966 4.34335 14.2055 4.4752C14.0145 4.60706 13.8656 4.79447 13.7777 5.01374C13.6897 5.23302 13.6667 5.47429 13.7115 5.70707C13.7564 5.93985 13.867 6.15366 14.0295 6.32149C14.192 6.48931 14.399 6.6036 14.6243 6.6499C14.8497 6.6962 15.0833 6.67244 15.2955 6.58161C15.5078 6.49079 15.6893 6.33698 15.8169 6.13964C15.9446 5.94231 16.0127 5.7103 16.0127 5.47296C16.0127 5.1547 15.8903 4.84948 15.6724 4.62444C15.4546 4.3994 15.1591 4.27297 14.851 4.27297ZM19.3043 6.69296C19.2855 5.86326 19.135 5.04237 18.859 4.26297C18.6128 3.59611 18.2297 2.99225 17.736 2.49298C17.2566 1.98041 16.6706 1.58716 16.0224 1.34299C15.2698 1.04915 14.4742 0.890198 13.6699 0.872988C12.6437 0.812988 12.3145 0.812988 9.6812 0.812988C7.04792 0.812988 6.71876 0.812988 5.69255 0.872988C4.88819 0.890198 4.09258 1.04915 3.34002 1.34299C2.693 1.58963 2.10753 1.98254 1.62644 2.49298C1.13021 2.98815 0.749496 3.59341 0.513104 4.26297C0.228632 5.04031 0.0747486 5.86211 0.0580872 6.69296C-5.40979e-08 7.75295 0 8.09295 0 10.8129C0 13.5329 -5.40979e-08 13.8729 0.0580872 14.9329C0.0747486 15.7638 0.228632 16.5856 0.513104 17.3629C0.749496 18.0325 1.13021 18.6377 1.62644 19.1329C2.10753 19.6433 2.693 20.0362 3.34002 20.2829C4.09258 20.5767 4.88819 20.7357 5.69255 20.7529C6.71876 20.8129 7.04792 20.8129 9.6812 20.8129C12.3145 20.8129 12.6437 20.8129 13.6699 20.7529C14.4742 20.7357 15.2698 20.5767 16.0224 20.2829C16.6706 20.0387 17.2566 19.6455 17.736 19.1329C18.2319 18.6355 18.6153 18.0311 18.859 17.3629C19.135 16.5835 19.2855 15.7626 19.3043 14.9329C19.3043 13.8729 19.3624 13.5329 19.3624 10.8129C19.3624 8.09295 19.3624 7.75295 19.3043 6.69296ZM17.5617 14.8129C17.5547 15.4477 17.4434 16.0766 17.2325 16.6729C17.078 17.1081 16.8297 17.5013 16.5065 17.8229C16.1924 18.1534 15.8125 18.4093 15.3931 18.5729C14.8158 18.7906 14.2069 18.9056 13.5924 18.9129C12.6243 18.9629 12.2661 18.9729 9.71993 18.9729C7.17377 18.9729 6.81557 18.9729 5.84745 18.9129C5.20935 18.9252 4.57398 18.8237 3.96929 18.6129C3.56828 18.441 3.20579 18.1857 2.90436 17.8629C2.58303 17.5416 2.33786 17.1481 2.18795 16.7129C1.95159 16.1081 1.8205 15.4648 1.8007 14.8129C1.8007 13.8129 1.74262 13.4429 1.74262 10.8129C1.74262 8.18295 1.74262 7.81295 1.8007 6.81295C1.80504 6.16401 1.91973 5.52091 2.13955 4.91297C2.30998 4.49088 2.57158 4.11463 2.90436 3.81297C3.19849 3.46914 3.56199 3.19607 3.96929 3.01298C4.55941 2.79302 5.18138 2.67806 5.80872 2.67298C6.77684 2.67298 7.13505 2.61298 9.6812 2.61298C12.2274 2.61298 12.5856 2.61298 13.5537 2.67298C14.1682 2.68026 14.7771 2.79522 15.3544 3.01298C15.7943 3.18163 16.1892 3.45582 16.5065 3.81297C16.8237 4.12015 17.0716 4.4957 17.2325 4.91297C17.4477 5.5219 17.5591 6.16474 17.5617 6.81295C17.6101 7.81295 17.6198 8.18295 17.6198 10.8129C17.6198 13.4429 17.6101 13.8129 17.5617 14.8129ZM9.6812 5.68296C8.69935 5.68494 7.74009 5.98749 6.92463 6.55237C6.10918 7.11726 5.47412 7.91915 5.0997 8.8567C4.72529 9.79425 4.62832 10.8254 4.82104 11.8199C5.01376 12.8143 5.48753 13.7275 6.18249 14.4439C6.87745 15.1603 7.7624 15.6479 8.72553 15.8451C9.68867 16.0422 10.6868 15.94 11.5937 15.5514C12.5006 15.1629 13.2757 14.5054 13.821 13.662C14.3663 12.8185 14.6573 11.8271 14.6573 10.8129C14.6586 10.138 14.5307 9.46955 14.281 8.8459C14.0312 8.22225 13.6646 7.65576 13.2021 7.179C12.7397 6.70225 12.1905 6.32464 11.5863 6.06789C10.982 5.81114 10.3346 5.68032 9.6812 5.68296ZM9.6812 14.1429C9.04359 14.1429 8.42029 13.9476 7.89013 13.5817C7.35998 13.2158 6.94677 12.6957 6.70276 12.0873C6.45876 11.4788 6.39492 10.8092 6.51931 10.1633C6.6437 9.51733 6.95074 8.92399 7.4016 8.45828C7.85247 7.99257 8.4269 7.67542 9.05226 7.54694C9.67763 7.41845 10.3258 7.48439 10.9149 7.73643C11.504 7.98847 12.0075 8.41528 12.3617 8.96289C12.716 9.51051 12.905 10.1543 12.905 10.8129C12.905 11.2502 12.8217 11.6832 12.6596 12.0873C12.4976 12.4913 12.2602 12.8584 11.9608 13.1676C11.6614 13.4768 11.306 13.7221 10.9149 13.8894C10.5238 14.0568 10.1046 14.1429 9.6812 14.1429Z" fill="white"/>
</svg>
