<svg width="23" height="20" viewBox="0 0 23 20" fill="none" xmlns="http://www.w3.org/2000/svg">
<path d="M22.9546 3.04765C22.123 3.42915 21.2435 3.68134 20.3435 3.79639C21.293 3.1966 22.0045 2.25302 22.3461 1.1407C21.4538 1.70233 20.4771 2.09803 19.4583 2.3106C18.7774 1.52978 17.8706 1.01001 16.8802 0.832838C15.8897 0.655662 14.8717 0.831091 13.9857 1.33161C13.0998 1.83214 12.396 2.62944 11.9847 3.59848C11.5735 4.56752 11.478 5.65348 11.7134 6.68605C9.90927 6.58957 8.14454 6.09286 6.53383 5.22819C4.92311 4.36352 3.50244 3.15024 2.3641 1.66716C1.96483 2.40439 1.75504 3.2393 1.75557 4.08886C1.75415 4.87783 1.93726 5.65492 2.28859 6.35095C2.63992 7.04698 3.14857 7.64036 3.76926 8.07824C3.04784 8.05749 2.34185 7.8528 1.71131 7.48159V7.54009C1.71672 8.64552 2.08306 9.71505 2.74838 10.5678C3.41369 11.4205 4.33714 12.004 5.36251 12.2197C4.9678 12.3467 4.558 12.4137 4.14544 12.4186C3.85986 12.4151 3.57499 12.3877 3.2935 12.3367C3.58549 13.2876 4.15056 14.1186 4.91006 14.7141C5.66957 15.3096 6.58574 15.64 7.5311 15.6592C5.93475 16.9874 3.96386 17.7123 1.9326 17.7183C1.56276 17.7196 1.19321 17.6961 0.826172 17.6481C2.90008 19.064 5.31694 19.8156 7.78557 19.8124C9.48913 19.8311 11.1791 19.4907 12.7569 18.8111C14.3346 18.1314 15.7684 17.1262 16.9746 15.854C18.1808 14.5819 19.1352 13.0684 19.782 11.4018C20.4288 9.73532 20.7551 7.94923 20.7418 6.1479C20.7418 5.94901 20.7418 5.73843 20.7418 5.52785C21.61 4.84323 22.3588 4.00396 22.9546 3.04765Z" fill="white"/>
</svg>
