<svg width="11" height="21" viewBox="0 0 11 21" fill="none" xmlns="http://www.w3.org/2000/svg">
<path d="M10.1657 1.37493C10.1657 1.22763 10.1171 1.08637 10.0306 0.98222C9.94417 0.878068 9.82691 0.819556 9.70464 0.819556H7.39959C6.23888 0.749902 5.10247 1.23652 4.23865 2.17308C3.37484 3.10964 2.85384 4.42002 2.7895 5.81789V8.81688H0.484447C0.36218 8.81688 0.24492 8.8754 0.158464 8.97955C0.0720081 9.0837 0.0234375 9.22496 0.0234375 9.37225V12.2602C0.0234375 12.4075 0.0720081 12.5487 0.158464 12.6529C0.24492 12.757 0.36218 12.8155 0.484447 12.8155H2.7895V20.2575C2.7895 20.4048 2.83807 20.5461 2.92452 20.6502C3.01098 20.7544 3.12824 20.8129 3.25051 20.8129H6.01656C6.13883 20.8129 6.25609 20.7544 6.34255 20.6502C6.429 20.5461 6.47757 20.4048 6.47757 20.2575V12.8155H8.89326C8.99578 12.8173 9.09587 12.7779 9.17769 12.7034C9.25951 12.629 9.31841 12.5238 9.34505 12.4046L10.0089 9.51665C10.0272 9.43459 10.0297 9.34856 10.0161 9.26517C10.0025 9.18178 9.97321 9.10326 9.93046 9.03567C9.8877 8.96807 9.83264 8.91319 9.76952 8.87526C9.70639 8.83733 9.63688 8.81736 9.56634 8.81688H6.47757V5.81789C6.50051 5.54295 6.60768 5.28819 6.77817 5.10334C6.94866 4.91849 7.17022 4.81684 7.39959 4.81822H9.70464C9.82691 4.81822 9.94417 4.75971 10.0306 4.65556C10.1171 4.5514 10.1657 4.41014 10.1657 4.26285V1.37493Z" fill="white"/>
</svg>
