<svg width="25" height="19" viewBox="0 0 25 19" fill="none" xmlns="http://www.w3.org/2000/svg">
<path d="M16.2761 9.50298C14.1204 8.24054 12.0562 7.07993 9.94629 5.86816V13.1172C12.1666 11.7946 14.5068 10.5833 16.2852 9.50298H16.2761Z" fill="black"/>
<path d="M10.3517 18.791C5.87399 18.7006 4.34465 18.6194 3.40462 18.4071C2.76863 18.2661 2.21596 17.953 1.81072 17.4989C1.49753 17.1552 1.24845 16.6308 1.05521 15.9033C0.889456 15.2972 0.824897 14.7929 0.732858 13.561C0.591963 10.7809 0.558375 8.50796 0.732858 5.96828C0.876806 4.56579 0.946599 2.90087 1.90276 1.92955C2.35424 1.47496 2.87943 1.18241 3.46918 1.06148C4.39045 0.869792 8.31544 0.718262 12.3787 0.718262C16.4328 0.718262 20.3665 0.869792 21.2887 1.06148C22.0254 1.21301 22.7164 1.66712 23.122 2.25268C23.9945 3.75651 24.0097 5.6265 24.0983 7.08922C24.1349 7.78616 24.1349 11.7436 24.0983 12.4406C23.9604 14.7522 23.8496 15.5701 23.5364 16.4181C23.3428 16.9535 23.1774 17.236 22.8913 17.5491C22.4425 18.0309 21.8704 18.3514 21.2511 18.4678C17.3763 18.7872 14.086 18.8565 10.3517 18.791ZM16.2854 9.50223C14.1296 8.2398 12.0655 7.06914 9.95558 5.85738V13.1069C12.1759 11.7843 14.5166 10.5725 16.2945 9.49219L16.2854 9.50223Z" fill="white"/>
</svg>
